# xmcd CD database file
#
# Track frame offsets:
#	150
#	9756
#	41788
#	65789
#	85868
#	107029
#	126157
#	150871
#	171325
#	195810
#	204132
#
# Disc length: 2995 seconds
#
# Revision: 0
# Processed by: cddbd v1.5.2PL0 Copyright (c) Steve Scherf et al.
# Submitted via: CDex 1.51
#
DISCID=7f0bb10b
DTITLE=Bruno Angelini - Never Alone
DYEAR=2006
DGENRE=Jazz
TTITLE0=Immersion
TTITLE1=Laura
TTITLE2=Blue Monk
TTITLE3=Where Flamingos Fly
TTITLE4=Seasons In The Sun
TTITLE5=Summertime
TTITLE6=Lover Man
TTITLE7=Sometimes I Feel Like A Motherless Child
TTITLE8=When Sunny Gets Blue
TTITLE9=Love Isn't Everthing
TTITLE10=Left Alone
EXTD=YEAR: 2006
EXTT0=
EXTT1=
EXTT2=
EXTT3=
EXTT4=
EXTT5=
EXTT6=
EXTT7=
EXTT8=
EXTT9=
EXTT10=
PLAYORDER=
